<svg width="20px" height="20px" viewBox="0 0 20 20" version="1.1" xmlns="http://www.w3.org/2000/svg" xmlns:xlink="http://www.w3.org/1999/xlink">
    <g id="MI" stroke="none" stroke-width="1" fill="none" fill-rule="evenodd">
        <g id="Operational-Metrics-01" transform="translate(-171.000000, -308.000000)" fill="#FFFFFF" fill-rule="nonzero">
            <g id="np_alert_2649226_000000-copy" transform="translate(171.000000, 308.000000)">
                <path d="M10,19.8854545 C4.55,19.8854545 0.114545455,15.4509091 0.114545455,10 C0.114545455,4.54909091 4.54909091,0.114545455 10,0.114545455 C15.4509091,0.114545455 19.8854545,4.54909091 19.8854545,10 C19.8854545,15.4509091 15.4509091,19.8854545 10,19.8854545 Z M10,1.01659091 C5.04704545,1.01659091 1.01659091,5.04704545 1.01659091,10 C1.01659091,14.9529545 5.04704545,18.9834091 10,18.9834091 C14.9538636,18.9834091 18.9834091,14.9538636 18.9834091,10 C18.9834091,5.04704545 14.9538636,1.01659091 10,1.01659091 Z" id="Shape"></path>
                <path d="M8.80954545,13.3461364 C8.80954545,12.6412273 9.30227273,12.1352045 10.0071591,12.1352045 C10.7120455,12.1352045 11.1781364,12.64125 11.1905682,13.3461364 C11.1905682,14.0377273 10.7253636,14.5570682 10.0071591,14.5570682 C9.28804545,14.5570682 8.80954545,14.0377045 8.80954545,13.3461364 Z M9.249,11.47025 L8.94270455,5.44297727 L11.0582955,5.44297727 L10.7653182,11.47025 L9.249,11.47025 Z" id="Shape"></path>
            </g>
        </g>
    </g>
</svg>