<svg width="20" height="20" xmlns="http://www.w3.org/2000/svg"><g fill="#2E1A47" fill-rule="nonzero"><path d="M9.885 19.77C4.435 19.77 0 15.337 0 9.886 0 4.435 4.435 0 9.885 0c5.451 0 9.886 4.435 9.886 9.885 0 5.451-4.435 9.886-9.886 9.886Zm0-18.868C4.933.902.902 4.932.902 9.885s4.03 8.984 8.983 8.984c4.954 0 8.984-4.03 8.984-8.984 0-4.952-4.03-8.983-8.984-8.983Z"/><path d="M8.695 13.232c0-.705.493-1.211 1.198-1.211.704 0 1.17.506 1.183 1.21 0 .692-.465 1.212-1.183 1.212-.72 0-1.198-.52-1.198-1.211Zm.44-1.876-.307-6.028h2.116l-.293 6.028H9.134Z"/></g></svg>