<?xml version="1.0" encoding="UTF-8"?>
<svg width="46px" height="50px" viewBox="0 0 46 50" version="1.1" xmlns="http://www.w3.org/2000/svg" xmlns:xlink="http://www.w3.org/1999/xlink">
    <title>np_financial-insurance_3060422_000000</title>
    <g id="MI" stroke="none" stroke-width="1" fill="none" fill-rule="evenodd">
        <g id="Operational-Metrics-01" transform="translate(-158.000000, -415.000000)" fill="#FFFFFF" fill-rule="nonzero">
            <g id="np_financial-insurance_3060422_000000" transform="translate(158.000000, 415.000000)">
                <path d="M24.4050909,2.61229167 L24.4050909,1.88395833 C24.4050909,1.11692708 23.7761977,0.49234375 23.0002614,0.49234375 C22.2263636,0.49234375 21.5954318,1.11692708 21.5954318,1.88395833 L21.5954318,2.61229167 C21.3075241,2.63060208 21.0195955,2.64891302 20.7337682,2.67739583 C20.6684273,2.68349948 20.6051302,2.69367188 20.541828,2.69977552 C20.2355411,2.7323276 19.9292439,2.7689474 19.6270552,2.81167135 C19.5780495,2.81777448 19.5310877,2.8279474 19.4841207,2.8360849 C19.1655811,2.88491302 18.8511502,2.93780885 18.5366775,3.00088177 C18.5101324,3.00698542 18.4856295,3.01308854 18.4590839,3.01715781 C8.47028841,5.02726198 0.968106591,13.5577828 0.461583864,23.9218453 C0.443206864,24.2921266 0.43503925,24.6644495 0.43503925,25.0408036 C0.43503925,25.2523922 0.606556523,25.4232932 0.818919705,25.4232932 C1.03128289,25.4232932 1.20280016,25.2523974 1.20280016,25.0408036 C1.20280016,22.8150745 3.0201138,21.0023141 5.25393652,21.0023141 C7.14066834,21.0023141 8.80278425,22.332887 9.20706152,24.1679911 C9.27240243,24.4568922 9.30507289,24.7498661 9.30507289,25.0408036 C9.30507289,25.2523922 9.47659016,25.4232932 9.68895334,25.4232932 C9.90131652,25.4232932 10.0728338,25.2523974 10.0728338,25.0408036 C10.0728338,22.8150745 11.8901474,21.0043453 14.1239702,21.0023141 C16.3577929,21.0023141 18.1751065,22.8150745 18.1751065,25.0408036 C18.1751065,25.2523922 18.3466238,25.4232932 18.558987,25.4232932 C18.7713502,25.4232932 18.9428674,25.2523974 18.9428674,25.0408036 C18.9428674,24.7844547 18.9734961,24.5362464 19.0184172,24.294137 C19.0347524,24.2086891 19.0612976,24.1293401 19.0817143,24.0459286 C19.1225523,23.8913036 19.1674729,23.7366839 19.2246488,23.5901995 C19.259361,23.5006786 19.3001986,23.4131995 19.3410393,23.3257151 C19.4043363,23.1914391 19.4758036,23.0591943 19.5554411,22.9330536 C19.6044468,22.8537099 19.6534524,22.7743609 19.7085845,22.6970536 C19.8025133,22.5668453 19.9086897,22.4427411 20.0169099,22.3247411 C20.0699981,22.2677724 20.1190038,22.2047047 20.1741358,22.1497724 C20.3456531,21.9829443 20.5294283,21.8283193 20.7295336,21.6920068 C20.7377012,21.6859031 20.7479106,21.6818339 20.7560782,21.6777651 C20.9480184,21.5516245 21.1501675,21.4417651 21.3625464,21.3481766 C21.3931745,21.3339354 21.4258434,21.3278318 21.4564752,21.3135901 L21.4564752,26.7823401 C18.299673,27.4903609 16.0373616,30.2755693 16.0373616,33.5307776 C16.0373616,36.7941109 18.2977389,39.5833818 21.4564752,40.2932776 L21.4564752,45.0275484 C21.4564752,45.4039339 21.3074143,45.7620276 21.0378857,46.036663 C20.776522,46.2970797 20.4477789,46.4415276 20.0884039,46.4517047 C19.726985,46.4700151 19.3778084,46.3235328 19.098097,46.057012 C18.7836452,45.7538714 18.6039577,45.3368036 18.6039577,44.8668036 C18.6039577,44.0224807 17.9138009,43.3348245 17.0664077,43.3348245 C16.2190145,43.3348245 15.5288577,44.0224807 15.5288577,44.8749286 C15.5288577,47.2146161 17.2114123,49.1880536 19.4370805,49.4668036 C19.6392295,49.4932526 19.8393348,49.5054594 20.0373805,49.5054594 C21.5279895,49.5054594 22.9246123,48.7730635 23.7781214,47.509626 C24.2681782,46.791449 24.5295418,45.8921781 24.5295418,44.9115531 L24.5295418,40.2932198 C27.69246,39.5831677 29.9570191,36.7938448 29.9570191,33.5307198 C29.9570191,30.2755115 27.6925645,27.4921781 24.5295418,26.7822823 L24.5295418,21.305199 C26.0037895,21.9094698 27.0451668,23.353949 27.0451668,25.036501 C27.0451668,25.2480896 27.2166841,25.4189906 27.4290473,25.4189906 C27.6414105,25.4189906 27.8129277,25.2480896 27.8129277,25.036501 C27.8129277,22.8107719 29.6302414,20.9980115 31.8661027,20.9980115 C34.0999255,20.9980115 35.9172391,22.8087406 35.9172391,25.036501 C35.9172391,25.2480896 36.0887564,25.4189906 36.3011143,25.4189906 C36.5134723,25.4189906 36.6849948,25.2480896 36.6849948,25.036501 C36.6849948,24.7455687 36.7176652,24.4525948 36.7830061,24.1636885 L36.7830061,24.1616542 C37.189343,22.3285812 38.851438,20.9980083 40.7361311,20.9980083 C42.9699539,20.9980083 44.7872675,22.8087375 44.7872675,25.0364979 C44.7872675,25.2480865 44.9587848,25.4189875 45.1711427,25.4189875 C45.3835007,25.4189875 45.5550316,25.2480865 45.5550316,25.0364979 C45.5652326,13.1021229 36.2949095,3.32243542 24.404955,2.61201875 L24.4050909,2.61229167 Z M21.04615,20.658125 C20.9726441,20.6906771 20.899133,20.7232292 20.8256218,20.759849 C20.686775,20.8310573 20.5520055,20.9083698 20.4213236,20.98975 C20.3743597,21.0182333 20.3273948,21.0446823 20.2824768,21.0751979 C20.1089157,21.1931979 19.9455634,21.321375 19.7903761,21.4597187 C19.7515798,21.4943052 19.7189089,21.5309271 19.6821559,21.5655104 C19.5678093,21.675375 19.4575452,21.7872708 19.3534075,21.9073073 C19.3044018,21.9622396 19.2594786,22.0212396 19.2125168,22.0782031 C19.1267582,22.1880677 19.045082,22.302 18.9674884,22.4179635 C18.9266503,22.4810312 18.8837684,22.5420677 18.8470155,22.6071719 C18.7551305,22.7617969 18.6734543,22.9225208 18.5979045,23.0873177 C18.5876952,23.1117318 18.5713599,23.1341115 18.56115,23.158526 C18.5550247,23.1463187 18.5468571,23.134112 18.542773,23.1219047 C17.7995071,21.4251339 16.1006435,20.2349255 14.1261458,20.2349255 C13.8933701,20.2349255 13.6646769,20.2552708 13.4400662,20.2878214 C13.3665551,20.2979937 13.2971317,20.3163042 13.2236258,20.3305458 C13.0745648,20.3590292 12.9255092,20.3895458 12.7825746,20.4322698 C12.7008985,20.4566839 12.6212662,20.4851656 12.5416287,20.51365 C12.4109469,20.5584089 12.2823089,20.6072385 12.1577483,20.6642021 C12.078116,20.6987891 12.0005223,20.7374417 11.9249726,20.7781344 C11.8044996,20.8412021 11.6881144,20.9083427 11.5737626,20.979551 C11.5022953,21.0243104 11.430828,21.0690719 11.3634485,21.1158635 C11.247058,21.1972437 11.1367992,21.2867594 11.0285789,21.3783167 C10.971403,21.4271448 10.9121885,21.4719052 10.8570617,21.5227646 C10.7263798,21.642801 10.6059069,21.7709729 10.4895217,21.9052542 C10.4670611,21.9317026 10.4384742,21.9540823 10.4160158,21.9825667 C10.413974,21.9866359 10.4119322,21.9907047 10.4078481,21.9927391 C10.2771663,22.1514318 10.1566934,22.3162234 10.0464293,22.4891609 C10.7876565,11.8323901 16.1069293,3.6558276 22.6185429,3.34436927 L22.6185429,20.2610359 C22.5205315,20.269174 22.4225202,20.2732427 22.3265527,20.28545 C22.2326238,20.2996911 22.1427827,20.3220708 22.0508977,20.3403823 L22.0488559,20.3403823 L21.9630973,20.3566583 C21.89163,20.3688651 21.8222066,20.3810719 21.7548218,20.3993828 L21.7527795,20.3993828 L21.7507378,20.3993828 L21.4669125,20.4766953 L21.4669125,20.490937 C21.4505773,20.4970406 21.4362838,20.5031443 21.4219909,20.5092474 C21.2913091,20.5560411 21.1667536,20.6028359 21.0462807,20.6577682 L21.04615,20.658125 Z M22.3631614,1.88364583 C22.3631614,1.53778125 22.6490305,1.25703125 23.0002614,1.25703125 C23.3514923,1.25703125 23.6352705,1.53779167 23.6352705,1.88364583 L23.6352705,2.56723958 C23.5617645,2.56520469 23.4841709,2.56927396 23.4106598,2.56723958 C23.130917,2.55910104 22.855262,2.55910104 22.579628,2.56723958 C22.5081607,2.56927396 22.4346548,2.56520469 22.3631875,2.56723958 L22.3631614,1.88364583 Z M5.25429773,20.2367708 C4.86020841,20.2367708 4.47632273,20.2835641 4.10879318,20.3730833 C4.04957864,20.3873245 3.99444659,20.4097042 3.93523205,20.4259792 C2.90608659,20.7189479 2.01582977,21.3374375 1.39101386,22.1695729 C2.27923205,15.4456146 6.24871841,9.67165625 11.8659457,6.34926042 L11.8679875,6.34926042 C12.0844279,6.22108854 12.3029122,6.10105208 12.5234352,5.98101563 C12.5826497,5.94846354 12.6418643,5.913875 12.7010788,5.88132292 C12.866475,5.79383854 13.0359484,5.71042708 13.2033884,5.62701042 C13.3218175,5.56801042 13.4382079,5.50697396 13.5586809,5.45001042 C13.6791538,5.39304688 13.8016654,5.34014583 13.9241822,5.28521354 C14.0936609,5.20790104 14.2631395,5.13058854 14.4346568,5.05734896 C14.5183768,5.02276198 14.6041354,4.99020833 14.6878554,4.955625 C14.9002134,4.86814063 15.1125713,4.78269271 15.3290327,4.7013125 C15.3800801,4.68300208 15.4311265,4.66469115 15.4821761,4.64638021 C15.731287,4.55482813 15.9824418,4.46734375 16.2376738,4.38596354 C16.2683025,4.37579115 16.2989322,4.36765313 16.3275202,4.3595151 C16.6031752,4.27203073 16.8788406,4.18861927 17.1606429,4.11130677 C17.183104,4.10520313 17.2055645,4.0991 17.2280277,4.09299635 C17.5138968,4.01568385 17.8018254,3.94244427 18.0937686,3.8773401 C18.1243973,3.87123698 18.155027,3.86513333 18.1856536,3.85902969 C18.2734561,3.8386849 18.3653411,3.82240885 18.4531436,3.8040974 C13.5403436,6.56696198 9.89557541,13.6957641 9.28293905,22.4259724 C8.40899132,21.099462 6.90818905,20.2368578 5.25427995,20.2368578 L5.25429773,20.2367708 Z M23.7683234,44.9133333 C23.7683234,45.7393229 23.5558943,46.4880208 23.1495523,47.0821354 C22.3429841,48.2723437 20.9606318,48.8969271 19.5415318,48.7077083 C17.6956773,48.475776 16.3030795,46.8278125 16.3030795,44.8685938 C16.3030795,44.4454167 16.6481632,44.1035937 17.0708614,44.1035937 C17.4955773,44.1035937 17.8386432,44.4474271 17.8386432,44.9153646 C17.8386432,45.5480729 18.1061332,46.1665625 18.569625,46.6121354 C19.0004673,47.0251406 19.5497386,47.2346875 20.1194068,47.2204688 C20.6748045,47.2021583 21.1832614,46.9803958 21.5875386,46.5775521 C22.0000018,46.1564115 22.2287159,45.6070833 22.2287159,45.0313021 L22.2307577,40.4292708 C22.2552605,40.4313052 22.2797634,40.4313052 22.3042636,40.4333396 C22.5411218,40.4557193 22.7739027,40.4719953 22.9984977,40.4719953 C23.225147,40.4719953 23.4620104,40.4557193 23.7009386,40.4333396 C23.7233991,40.4313052 23.7438184,40.4313052 23.7683234,40.4292708 L23.7683234,44.9133333 Z M29.1957295,33.5320833 C29.1957295,36.5329687 27.0476341,39.0904167 24.0909841,39.61125 C23.5253932,39.7048385 23.0026659,39.7272187 22.4615386,39.6824583 C22.2818511,39.6661823 22.0980811,39.6438031 21.9122568,39.6132865 C18.9576455,39.0904219 16.8136273,36.5350573 16.8136273,33.5341198 C16.8136273,30.5413594 18.9596841,27.989849 21.9122568,27.4690156 C22.287967,27.4059479 22.6555227,27.3754271 23.0026136,27.3754271 C23.3476973,27.3754271 23.7152477,27.4059448 24.0909318,27.4690156 C27.0475818,27.9918802 29.1957295,30.541099 29.1957295,33.5320365 L29.1957295,33.5320833 Z M23.7682523,26.6513542 C23.7478335,26.6493198 23.7274142,26.6493198 23.7069939,26.6472849 C23.4742182,26.6228714 23.2434811,26.6086297 23.0147984,26.6086297 L23.000505,26.6086297 L22.9862115,26.6086297 C22.7616008,26.6086297 22.5329076,26.6228714 22.3042092,26.6472849 C22.2797064,26.6493198 22.2572453,26.6493198 22.232742,26.6513542 L22.232742,21.0789583 C22.4818529,21.0301302 22.739134,21.0016458 23.0025624,21.0016458 C23.0086883,21.0016458 23.0127723,21.0036802 23.0188976,21.0036802 C23.2761788,21.0036802 23.5273335,21.032163 23.7703181,21.0789562 L23.7682523,26.6513542 Z M27.4375364,23.1601932 C27.34769,22.9526354 27.2435575,22.7512187 27.127167,22.56 C27.090413,22.4989635 27.043447,22.442 27.0046502,22.383 C26.9209302,22.2568594 26.8351716,22.130724 26.7392041,22.0127187 C26.684072,21.9455781 26.6228136,21.8845469 26.5635991,21.821474 C26.4717141,21.71975 26.3798291,21.6200573 26.2797739,21.5264687 C26.2103505,21.463401 26.1368393,21.4064323 26.065372,21.3474323 C25.9653168,21.2640156 25.8652668,21.1826354 25.7590852,21.1073594 C25.679453,21.0524271 25.595733,21.003599 25.512013,20.9527344 C25.4037927,20.8855937 25.2955725,20.8204896 25.1812259,20.763526 C25.0913795,20.7187667 24.9994945,20.6801094 24.9076095,20.6394219 C24.7912191,20.5885594 24.6748339,20.5417656 24.5543609,20.5010781 C24.5502774,20.4990437 24.5441515,20.4970094 24.5400675,20.4949745 L24.5400675,20.4807333 L24.2562422,20.4034208 C24.2296971,20.3952828 24.2011102,20.3932484 24.1745661,20.3871448 C24.0785986,20.3627307 23.9826259,20.3444203 23.8846145,20.3261083 C23.8151911,20.313901 23.7478063,20.297625 23.676339,20.2874526 C23.6232509,20.2793146 23.5681188,20.2772802 23.5150306,20.2711766 C23.4721508,20.2671073 23.429272,20.2549005 23.3863927,20.2528661 L23.3843509,3.33776198 C29.8980555,3.64904323 35.2173282,11.8299495 35.9564645,22.4888036 C35.8462005,22.3158714 35.7257275,22.1510745 35.5970895,21.9923818 C35.5685032,21.9577953 35.5358311,21.9272776 35.5052045,21.8947255 C35.3929018,21.7645172 35.2744675,21.640413 35.1478734,21.522413 C35.0906975,21.4695172 35.031483,21.4247568 34.9722684,21.3738922 C34.8640482,21.2843766 34.755828,21.1948557 34.6394375,21.1134755 C34.5700141,21.0646474 34.4985468,21.019887 34.4270795,20.9751318 C34.312733,20.9039234 34.1963425,20.8367828 34.0758695,20.7737151 C33.9982759,20.7350594 33.9206823,20.6964026 33.84105,20.6597828 C33.7164945,20.6028141 33.5878514,20.5539911 33.4571695,20.5092307 C33.3775373,20.4807479 33.2978998,20.452262 33.2162236,20.4278505 C33.0712505,20.385126 32.9242334,20.3546109 32.7751725,20.3261266 C32.7037052,20.3118849 32.632238,20.2935745 32.558732,20.2834016 C32.3341214,20.2508495 32.1054282,20.2305057 31.8726525,20.2305057 C29.883832,20.2366094 28.1727366,21.4430578 27.4376252,23.1601932 L27.4375364,23.1601932 Z M40.7466955,20.2365625 C39.0947727,20.2365625 37.5919318,21.10125 36.7180364,22.4236458 C36.1054523,13.6913542 32.4586455,6.56270833 27.54365,3.7996875 C36.5361273,5.67958333 43.4073773,13.0325 44.60965,22.1710417 C43.7295864,20.9971354 42.3267955,20.23625 40.7463818,20.23625 L40.7466955,20.2365625 Z" id="Shape"></path>
                <path d="M23.3836818,29.128125 L23.3836818,28.8229479 C23.3836818,28.6113594 23.2121645,28.4404583 22.9998014,28.4404583 C22.7874382,28.4404583 22.6159209,28.6113542 22.6159209,28.8229479 L22.6159209,29.1301562 C22.5097445,29.1443974 22.4015191,29.1443974 22.2994252,29.1708458 C22.0748145,29.2278146 21.860418,29.311226 21.6623252,29.4231271 C21.6602835,29.4231271 21.6602835,29.4251615 21.6582417,29.4251615 L21.6561999,29.4251615 C20.8680317,29.8585104 20.3779749,30.6519844 20.3779749,31.4963073 C20.3779749,32.346724 20.8680317,33.1422448 21.6541613,33.5755781 L21.6562036,33.5776125 C21.6562036,33.5776125 21.6582453,33.5776125 21.6582453,33.5796469 C21.6602871,33.5796469 21.6602871,33.5816813 21.6602871,33.5816813 L21.6623289,33.5816813 C21.9543191,33.7444417 22.2769516,33.8522698 22.6138493,33.8990667 L22.6138493,37.1868271 C22.5852624,37.1807234 22.5566734,37.1827578 22.5280907,37.1766542 C22.5056302,37.170551 22.4831691,37.1644474 22.4607059,37.1583438 C22.3136889,37.1176536 22.1687157,37.062724 22.03599,36.9874479 L22.0339482,36.9874479 L22.0319065,36.9854135 C21.4785474,36.6822729 21.1477656,36.159424 21.1477656,35.5836427 C21.1477656,35.3720542 20.9762483,35.2011583 20.7638851,35.2011583 C20.5515219,35.2011583 20.3800047,35.3720542 20.3800047,35.5836427 C20.3800047,36.4279656 20.8700615,37.2214031 21.6582297,37.6547885 C21.6582297,37.6547885 21.6602714,37.6547885 21.6602714,37.6568229 C21.6623132,37.6568229 21.6623132,37.6588578 21.6623132,37.6588578 L21.664355,37.6588578 C21.9563452,37.8236547 22.2789777,37.9294464 22.6158754,37.976238 L22.6158754,38.2569984 C22.6158754,38.468587 22.7873927,38.639488 22.9997559,38.639488 C23.2121191,38.639488 23.3836363,38.4685922 23.3836363,38.2569984 L23.3836363,37.976238 C23.7164672,37.9294448 24.0411227,37.8277172 24.3351568,37.6669932 C25.1274022,37.2397484 25.6195238,36.4401703 25.6195238,35.5836599 C25.6195238,34.7271495 25.127397,33.9275661 24.3351568,33.5003266 L24.3331145,33.5003266 C24.0390804,33.3416339 23.7164531,33.2378734 23.3836327,33.1910818 L23.3836327,29.8951964 C23.4122191,29.9012995 23.4408086,29.8992651 23.4693913,29.9053688 C23.4898101,29.9094375 23.5102289,29.9175755 23.5306497,29.9216448 C23.6817493,29.9623349 23.8308102,30.0152333 23.9676184,30.0905094 L23.9696607,30.0905094 C24.5230197,30.3895823 24.8517629,30.916499 24.8517629,31.5004052 C24.8517629,31.7119938 25.0232802,31.8828948 25.2356434,31.8828948 C25.4480066,31.8828948 25.6195238,31.711999 25.6195238,31.5004052 C25.6195238,30.6438948 25.1274232,29.8443115 24.3351829,29.4170719 C24.3331406,29.4170719 24.3310989,29.4170719 24.3290571,29.415037 C24.0391055,29.2522766 23.7144344,29.1729328 23.3836525,29.1281724 L23.3836818,29.128125 Z M22.0360386,32.9102604 C22.0339969,32.9102604 22.0339969,32.9102604 22.0319551,32.908226 L22.0299128,32.9061917 C21.4847082,32.6091552 21.1457719,32.0679625 21.1457719,31.4962958 C21.1457719,30.9205146 21.4765589,30.3956187 22.0360287,30.0904625 C22.170793,30.0151865 22.3157714,29.9602542 22.4627885,29.9195615 C22.4832078,29.9134583 22.5036265,29.9073547 22.5260855,29.901251 C22.5546724,29.8951479 22.5853001,29.8951479 22.613888,29.8910786 L22.613888,33.1096724 C22.4117389,33.0710172 22.2157162,33.0120161 22.036013,32.9102922 L22.0360386,32.9102604 Z M23.9676727,34.1676042 C24.5210318,34.4666771 24.849775,34.9935937 24.849775,35.5775 L24.849775,35.6181901 C24.8354821,36.1857943 24.5067352,36.6964714 23.9676727,36.9874089 C23.8288259,37.0626849 23.679765,37.1155807 23.5286655,37.1562734 C23.5082462,37.1623766 23.4857856,37.1684802 23.4653684,37.1745839 C23.4388238,37.1806875 23.4102364,37.1786526 23.3816484,37.1847562 L23.3816484,33.970225 C23.58788,34.0088807 23.7839027,34.0678812 23.967678,34.167574 L23.9676727,34.1676042 Z" id="Shape"></path>
                <path d="M38.1711136,12.4552083 C38.0057175,12.5894844 37.9832559,12.8295573 38.1180255,12.994375 C39.0736232,14.158125 39.8515982,15.45 40.4274345,16.8314583 C40.488693,16.9779427 40.6316223,17.0674583 40.782727,17.0674583 C40.8317327,17.0674583 40.8827823,17.0572859 40.9297441,17.0389755 C41.1257668,16.9575953 41.2176518,16.7337984 41.1359757,16.5384859 C40.5295075,15.0878609 39.7147848,13.732913 38.7102075,12.5101526 C38.5754432,12.3453557 38.3344973,12.3209443 38.1711711,12.4552203 L38.1711136,12.4552083 Z" id="Path"></path>
            </g>
        </g>
    </g>
</svg>