<?xml version="1.0" encoding="UTF-8"?>
<svg width="52px" height="52px" viewBox="0 0 52 52" version="1.1" xmlns="http://www.w3.org/2000/svg" xmlns:xlink="http://www.w3.org/1999/xlink">
    <title>np_plane_717829_000000</title>
    <g id="MI" stroke="none" stroke-width="1" fill="none" fill-rule="evenodd" stroke-linecap="round" stroke-linejoin="round">
        <g id="Operational-Metrics-01" transform="translate(-155.000000, -728.000000)" stroke="#FFFFFF">
            <g id="np_plane_717829_000000" transform="translate(156.000000, 729.000000)">
                <polygon id="Path" points="7.97875 43.08375 6.91675 42.02175 18.086125 31.91425"></polygon>
                <path d="M23.403125,20.215 L17.9954375,16.93375 L-0.0001875,13.8331875 L3.0100625,10.8229375 C3.8425625,9.9904375 4.929,9.575375 6.0203125,9.575375 L34.0428125,9.575375 L23.403125,20.215 Z" id="Path"></path>
                <path d="M10.754375,37.76875 L2.13125,32.9786875 C2.9613125,32.148625 4.0501875,31.7335625 5.1415,31.7335625 L14.062125,31.7311206 C12.8585,33.6598081 11.74525,35.6715581 10.754,37.76875 L10.754375,37.76875 Z" id="Path"></path>
                <polygon id="Path" points="16.648125 14.204375 14.51925 16.33325 17.99825 16.9338375 23.4035 20.2150875 27.5368125 16.081775"></polygon>
                <polygon id="Path" points="14.51875 16.333125 16.647625 14.20425 5.758875 12.32925 3.63 14.458125"></polygon>
                <path d="M16.92875,9.575 C18.03225,8.87675 19.047875,8.0784375 19.9463125,7.1824375 L17.287625,4.52375 C15.8643125,5.9470625 14.6801875,7.64875 13.7915,9.575 L16.92875,9.575 Z" id="Path"></path>
                <path d="M25.700625,9.575 C26.4965,9.00859375 27.2460625,8.3909375 27.92475,7.7121875 L25.2660625,5.0535 C23.9745625,6.345 22.8808125,7.866 22.023875,9.575 L25.700625,9.575 Z" id="Path"></path>
                <path d="M39.8925,6.91625 L20.744375,26.061875 L39.8925,6.91625 Z" id="Path"></path>
                <path d="M29.7875,26.596875 L33.0663125,32.0045625 L36.1693125,50.0001875 L39.177125,46.9899375 C40.009625,46.159875 40.4246875,45.071 40.4246875,43.982125 L40.4246875,15.962125 L29.7875,26.596875 Z" id="Path"></path>
                <path d="M12.23125,39.248125 L17.02375,47.87375 C17.85625,47.0436875 18.268875,45.952375 18.268875,44.8635 L18.268875,35.937875 C16.3401875,37.1439375 14.3333125,38.2571875 12.23125,39.2484375 L12.23125,39.248125 Z" id="Path"></path>
                <polygon id="Path" points="35.795625 33.356875 33.66675 35.4833125 33.0661625 32.0043125 29.78735 26.596625 33.918225 22.46575"></polygon>
                <polygon id="Path" points="33.666875 35.483125 35.79575 33.3566875 37.6731875 44.2429375 35.5443125 46.369375"></polygon>
                <path d="M40.4275,33.07125 C41.12575,31.96775 41.9240625,30.952125 42.8200625,30.0536875 L45.47875,32.7148125 C44.0554375,34.1356875 42.3513125,35.32225 40.4250625,36.2084375 L40.4275,33.07125 Z" id="Path"></path>
                <path d="M40.4275,24.299375 C40.9939062,23.5035 41.6115625,22.7539375 42.287875,22.0728125 L44.949,24.7315 C43.6575,26.023 42.1340625,27.1191875 40.4275,27.9736875 L40.4275,24.299375 Z" id="Path"></path>
                <path d="M43.08625,10.1075 L23.938125,29.255625 L43.08625,10.1075 Z" id="Path"></path>
                <path d="M50,0.005 L49.9975587,0.0001175 C46.0522462,0.0001175 42.1119337,1.5039925 39.1013088,4.5167425 L22.4313088,21.1817425 C17.4118088,26.2037425 13.2175588,32.2167425 10.1756837,39.0723675 L18.0856838,31.9167425 L10.9250587,39.8267425 C17.7856837,36.7847425 23.7963088,32.5904925 28.8181837,27.5661175 L45.4881837,10.8986175 C48.4959962,7.8883675 50,3.9454925 50,0.0048675 L50,0.005 Z" id="Path"></path>
                <path d="M45.2125,6.91625 C45.8008813,6.32786875 45.8008813,5.3781875 45.2125,4.787375 C44.6241187,4.19899375 43.672,4.19899375 43.083625,4.787375 C43.6720063,4.19899375 44.624125,4.19899375 45.2125,4.787375 C45.8008813,5.37819375 45.8008813,6.327875 45.2125,6.91625 L45.2125,6.91625 Z" id="Path"></path>
            </g>
        </g>
    </g>
</svg>