<svg width="16px" height="15px" viewBox="0 0 16 15" version="1.1" xmlns="http://www.w3.org/2000/svg" xmlns:xlink="http://www.w3.org/1999/xlink">
    <g id="MI" stroke="none" stroke-width="1" fill="none" fill-rule="evenodd">
        <g id="Operational-Metrics-01" transform="translate(-1251.000000, -200.000000)" fill="#37809F">
            <g id="Filters" transform="translate(138.000000, 164.000000)">
                <g id="btn-Download" transform="translate(1078.000000, 0.000000)">
                    <g id="fa-download-color" transform="translate(35.000000, 36.000000)">
                        <path d="M0.27576936,14.4957585 C0.44783715,14.6854313 0.672139805,14.7714367 0.93100965,14.7714367 L15.0689903,14.7714367 C15.3278602,14.7714367 15.5521628,14.6854313 15.7242306,14.4957585 C15.9139661,14.3229797 16,14.0995191 16,13.8407349 L16,10.772951 C16,10.5141668 15.9139661,10.2899383 15.7242306,10.1179273 C15.5521628,9.92825461 15.3278602,9.84224915 15.0689903,9.84224915 L10.6205771,9.84224915 L9.31086466,11.1515286 C8.93139373,11.5139802 8.50045609,11.6859911 8.00038408,11.6859911 C7.50031206,11.6859911 7.06937443,11.5139802 6.6899035,11.1515286 L5.39632244,9.84224915 L0.93100965,9.84224915 C0.672139805,9.84224915 0.44783715,9.92825461 0.27576936,10.1179273 C0.0860338951,10.2899383 0,10.5141668 0,10.772951 L0,13.8407349 C0,14.0995191 0.0860338951,14.3229797 0.27576936,14.4957585 L0.27576936,14.4957585 Z M3.25853378,5.96355675 L7.56867829,10.2730443 C7.69004753,10.3936055 7.82754813,10.4627171 8.00038408,10.4627171 C8.17245187,10.4627171 8.31072063,10.3936055 8.43132171,10.2730443 L12.7414662,5.96355675 C12.9312017,5.77388401 12.9826684,5.55042341 12.879735,5.29163914 C12.7591339,5.03285488 12.5693984,4.91229366 12.3105286,4.91229366 L9.84473571,4.91229366 L9.84473571,0.60357399 C9.84473571,0.448457011 9.77636948,0.293340031 9.65500024,0.172010908 C9.53439916,0.0514496913 9.39689855,0 9.22406261,0 L6.77593739,0 C6.6038696,0 6.46560084,0.0514496913 6.34499976,0.172010908 C6.22439867,0.293340031 6.15526429,0.448457011 6.15526429,0.60357399 L6.15526429,4.91229366 L3.68947141,4.91229366 C3.43136972,4.91229366 3.24163426,5.03285488 3.12103317,5.29163914 C3.0173316,5.55042341 3.06879831,5.77388401 3.25853378,5.96355675 L3.25853378,5.96355675 Z M11.6898555,12.306459 C11.8619233,12.306459 12.000192,12.3755705 12.1207931,12.4961317 C12.2413942,12.616693 12.3105286,12.754916 12.3105286,12.9269269 C12.3105286,13.0997057 12.2413942,13.2371609 12.1207931,13.3577221 C12.000192,13.4790512 11.8619233,13.5473948 11.6898555,13.5473948 C11.5346872,13.5473948 11.3795189,13.4790512 11.2589179,13.3577221 C11.1383168,13.2371609 11.0860819,13.0997057 11.0860819,12.9269269 C11.0860819,12.754916 11.1383168,12.616693 11.2589179,12.4961317 C11.3795189,12.3755705 11.5346872,12.306459 11.6898555,12.306459 L11.6898555,12.306459 Z M14.1556484,12.306459 C14.3277162,12.306459 14.4659849,12.3755705 14.586586,12.4961317 C14.7071871,12.616693 14.7763215,12.754916 14.7763215,12.9269269 C14.7763215,13.0997057 14.7071871,13.2371609 14.586586,13.3577221 C14.4659849,13.4790512 14.3277162,13.5473948 14.1556484,13.5473948 C13.9828124,13.5473948 13.8453118,13.4790512 13.7247107,13.3577221 C13.6033415,13.2371609 13.5349753,13.0997057 13.5349753,12.9269269 C13.5349753,12.754916 13.6033415,12.616693 13.7247107,12.4961317 C13.8453118,12.3755705 13.9828124,12.306459 14.1556484,12.306459 L14.1556484,12.306459 Z" id="Fill-253"></path>
                    </g>
                </g>
            </g>
        </g>
    </g>
</svg>