<?xml version="1.0" encoding="UTF-8"?>
<svg width="42px" height="50px" viewBox="0 0 42 50" version="1.1" xmlns="http://www.w3.org/2000/svg" xmlns:xlink="http://www.w3.org/1999/xlink">
    <title>np_customer-service_350411_000000</title>
    <g id="MI" stroke="none" stroke-width="1" fill="none" fill-rule="evenodd">
        <g id="Operational-Metrics-01" transform="translate(-160.000000, -573.000000)" fill="#FFFFFF" fill-rule="nonzero">
            <g id="np_customer-service_350411_000000" transform="translate(160.000000, 573.000000)">
                <path d="M41.0981489,43.9560233 C37.7995701,39.5863983 32.1061659,35.5404605 28.1357729,34.7462421 C26.9222902,34.5059122 26.0046678,33.6816234 25.7368019,32.5951916 C25.630848,32.1741236 25.5928637,30.9307904 25.5608774,29.8006308 C26.8423245,28.7718078 27.9958266,27.4470088 28.9414433,25.9593492 L31.0025369,25.9593492 C33.0536507,25.9593492 34.7269169,24.4061489 34.9428371,22.4259417 L35.7365063,22.4259417 C36.4761826,22.4259417 37.0759381,21.8280915 37.0759381,21.0951936 L37.0759381,17.6630718 C37.0759381,16.928191 36.4741867,16.3323238 35.7365063,16.3323238 L34.9868502,16.3323238 C34.9868502,8.23861779 34.7569482,0.0238977372 21.0725626,0 L20.9286244,0 C7.24463795,0.0238341794 7.01433674,8.23861779 7.01433674,16.3282561 L6.2646807,16.3282561 C5.52500437,16.3282561 4.92524883,16.9261063 4.92524883,17.6590041 L4.92524883,21.0911259 C4.92524883,21.8260068 5.52700032,22.421874 6.2646807,22.421874 L7.44218522,22.421874 C7.67808531,22.421874 7.86800193,22.2331886 7.86800193,21.9988179 L7.86800193,16.751485 C7.86200437,6.87002489 8.73761932,0.870167458 20.9301751,0.848303571 L20.928176,0.425247522 L21.0701132,0.848303571 C33.2607242,0.870151696 34.1384277,6.87053335 34.1322864,16.751485 L34.1322864,21.9988179 C34.1322864,23.7128958 32.726886,25.1091847 31.0016228,25.1091847 L29.4442748,25.1091847 C29.8700915,24.346491 30.2479237,23.5540013 30.551819,22.7376648 C31.4134526,22.5747992 32.1771314,21.4704745 32.4570241,19.935172 C32.7189124,18.3581248 32.3450722,17.0551896 31.5594124,16.6321488 C31.5674094,12.9835237 31.5514163,9.83146299 30.2679855,7.44219773 C28.8006085,4.70921183 25.8718936,3.43408958 21.0538898,3.42615757 L20.9459348,3.42615757 C16.1259863,3.4341028 13.1991137,4.71119483 11.7318391,7.44219773 C10.4563798,9.81570065 10.4323773,12.9396942 10.4404122,16.6321488 C9.65472686,17.0532168 9.28291834,18.3581248 9.54479641,19.9411211 C9.82267786,21.4704745 10.586372,22.5748042 11.4480057,22.7376648 C12.4855382,25.5203275 14.2868008,28.0704194 16.4398613,29.7986834 C16.407875,30.928843 16.3698906,32.1721863 16.2619356,32.5972101 C15.9980463,33.681659 15.0784433,34.5039445 13.8649606,34.7462777 C9.89467002,35.5427334 4.20100985,39.5885694 0.902584678,43.9560589 C-0.0530118291,45.2212661 -0.278911732,47.0684086 0.364805753,48.3474969 C0.900588734,49.4121157 1.95414002,50 3.331546,50 L38.6684526,50 C40.0458586,50 41.0994099,49.4140987 41.6351929,48.3474969 C42.2789103,47.0684086 42.0530156,45.2212661 41.0974139,43.9560589 L41.0981489,43.9560233 Z M7.01459263,21.5755382 L6.26493659,21.5755382 C5.99705021,21.5755382 5.77714838,21.359045 5.77714838,21.0909124 L5.77714838,17.6587905 C5.77714838,17.3926409 5.99505427,17.1741648 6.26493659,17.1741648 L7.01459263,17.1741648 L7.01459263,21.5755382 Z M36.2239516,17.6588007 L36.2239516,21.0909226 C36.2239516,21.3570722 36.0060457,21.5755483 35.7361634,21.5755483 L34.9865073,21.5755483 L34.9865073,17.1761783 L35.7361634,17.1761783 C36.0060457,17.1761783 36.2239516,17.3926714 36.2239516,17.6588211 L36.2239516,17.6588007 Z M40.8719419,47.9677415 C40.4821085,48.7423333 39.7204358,49.151493 38.6688805,49.151493 L3.33197385,49.151493 C2.2804185,49.151493 1.51873562,48.7423384 1.12891243,47.9677415 C0.621128957,46.9607315 0.813046636,45.4870039 1.58471436,44.4641299 C4.72136572,40.3110082 10.3049419,36.3226284 14.0332627,35.5762055 C15.574592,35.2703348 16.7481046,34.2057465 17.0919699,32.7995426 C17.223912,32.2731823 17.2598953,31.0258729 17.2978796,29.7031077 L17.2998787,29.6097591 C17.3038772,29.4747013 17.2419042,29.3455976 17.1359503,29.2641622 C14.9628792,27.5778972 13.147645,24.9978568 12.1560703,22.1894151 C12.0960948,22.0186022 11.9061781,21.907376 11.7222545,21.907376 C11.7042623,21.907376 11.6882692,21.907376 11.6702781,21.9093621 C11.2444613,21.9093621 10.6127349,21.0374506 10.384839,19.7960903 C10.15094,18.3839374 10.5547655,17.4146553 10.9466205,17.3411825 C11.1485332,17.3034449 11.2944725,17.0452421 11.2944725,16.8406622 C11.2844769,13.2178669 11.2764804,10.0877718 12.4859487,7.83935066 C13.7894024,5.4122558 16.4782458,4.2781302 20.950286,4.27218119 L20.950286,3.84912514 L21.0562399,4.27218119 C25.5263353,4.28012592 28.2170723,5.4142388 29.5205772,7.83935066 C30.7280721,10.087721 30.7200883,13.2178669 30.7120533,16.92405 C30.7120533,17.1286248 30.8579927,17.3034088 31.0599054,17.3411469 C31.4517348,17.4126469 31.8535746,18.3819188 31.6216868,19.7881227 C31.3937859,21.037415 30.7640451,21.9073943 30.3042615,21.9073943 L30.302262,21.9073943 C30.1063473,21.8855462 29.9164256,22.000743 29.8504571,22.1874453 C29.4926099,23.2023873 29.0228057,24.1835674 28.4730511,25.1071386 L24.0029557,25.1071386 C23.819032,24.5073054 23.2632794,24.0683498 22.6015472,24.0683498 L19.410903,24.0683498 C18.5992704,24.0683498 17.9395341,24.7238088 17.9395341,25.5301794 C17.9395341,26.3365501 18.5992704,26.9920091 19.410903,26.9920091 L22.6015472,26.9920091 C23.2632794,26.9920091 23.8190218,26.5530636 24.0029557,25.9532202 L27.9292843,25.9532202 C27.0516832,27.2362745 26.0140994,28.3743661 24.8705771,29.2602094 C24.7646232,29.3436278 24.7026517,29.4707434 24.7066487,29.6058063 L24.7086478,29.6991549 C24.7466311,31.019988 24.7806143,32.2692803 24.9125616,32.7916238 C25.2584126,34.1998107 26.4298883,35.2644295 27.9712688,35.5702697 C31.6996919,36.3170994 37.2831146,40.3053266 40.4198171,44.4581941 C41.1874878,45.4870171 41.3794055,46.9607956 40.871622,47.9677547 L40.8719419,47.9677415 Z M23.2155154,25.5338678 C23.2155154,25.8735055 22.937634,26.1495651 22.5958004,26.1495651 L19.4051562,26.1495651 C19.0633022,26.1495651 18.7854413,25.8734852 18.7854413,25.5338678 C18.7854413,25.1942505 19.0633227,24.9181706 19.4051562,24.9181706 L22.5958004,24.9181706 C22.9376544,24.9181706 23.2155154,25.1942505 23.2155154,25.5338678 Z" id="Shape"></path>
            </g>
        </g>
    </g>
</svg>