<?xml version="1.0" encoding="UTF-8"?>
<svg width="50px" height="50px" viewBox="0 0 50 50" version="1.1" xmlns="http://www.w3.org/2000/svg" xmlns:xlink="http://www.w3.org/1999/xlink">
    <title>np_business-people_821707_000000</title>
    <g id="MI" stroke="none" stroke-width="1" fill="none" fill-rule="evenodd">
        <g id="Operational-Metrics-01" transform="translate(-156.000000, -885.000000)" fill="#FFFFFF" fill-rule="nonzero">
            <g id="np_business-people_821707_000000" transform="translate(156.000000, 885.000000)">
                <path d="M49.1255814,32.9034884 C48.9984012,28.168314 46.2458721,26.4284884 43.2912791,25.2546512 L42.9029244,25.1002209 C41.29275,24.4642907 39.8937384,23.9033605 39.3010058,22.8495814 C41.1814709,22.7019593 45.3713547,22.0637674 46.3957733,19.3248721 C47.2383314,17.0674302 47.906064,9.70452326 44.5607733,4.88766279 C42.5213547,1.9534186 39.403157,0.465860465 35.2857733,0.465860465 L35.0473081,0.465860465 C28.0502151,0.465860465 25.145564,4.72865116 23.9507965,8.59609302 C23.8962907,8.55975581 23.8440581,8.52114535 23.7895523,8.48480814 C21.3799593,6.93591279 18.3049012,6.4794593 15.5569942,7.26521512 C13.2904826,7.91475 11.5167616,9.3341686 10.5492616,11.2736453 C8.45984302,12.6725988 7.99205233,17.2399244 9.54769186,20.9486453 C9.33194186,21.4868895 9.35237791,22.2340523 9.65443023,23.0016686 C9.98146512,23.8419593 10.560593,24.4483547 11.1601279,24.6163779 C11.4349302,26.3446919 12.3683256,27.9980058 13.6242558,29.2470756 C13.6401535,29.9874244 13.5129709,30.7619012 13.347186,30.8777151 C13.0042558,31.0594012 9.66805814,32.1336453 6.71113953,33.0466105 C3.59067442,33.941436 1.75794186,36.0262616 1.2582907,39.2582384 L0.28172093,46.8483547 C0.220401163,47.6545756 0.479302326,48.4153895 1.01526744,48.99225 C1.54897093,49.5691047 2.28706977,49.8848081 3.09102326,49.8848081 L33.8549767,49.8848081 C34.6611977,49.8848081 35.3992791,49.5668547 35.933,48.9899826 C36.4667035,48.4131279 36.7256163,47.6523081 36.6620116,46.8210872 L35.7285814,39.5536453 L48.1966047,39.5536453 L48.3442267,39.2697616 C48.3828349,39.1993605 49.2458547,37.4642384 49.1255058,32.904064 L49.1255814,32.9034884 Z M18.3436047,31.4590698 L18.5252907,31.4590698 C19.8311628,31.4590698 21.152907,30.9253663 22.3088953,30.0623837 C22.3452326,30.4280291 22.4201802,30.8163953 22.5632558,31.1434302 L19.0544186,35.0042442 L17.8938953,35.0042442 L14.3850581,31.1411628 C14.5190523,30.8300233 14.5939942,30.4666279 14.6303314,30.1146512 C15.7703895,30.9458721 17.0649244,31.4591279 18.3435291,31.4591279 L18.3436047,31.4590698 Z M20.5147674,41.510814 L20.1536686,37.1072093 L21.5026802,38.426686 L20.5147674,41.510814 Z M21.8592442,37.3093023 L20.0219186,35.5105814 L20.0196477,35.4969552 L23.3036012,31.8859669 C23.3740023,31.9154907 23.4603047,31.9472866 23.5579616,31.9836238 L21.8592442,37.3093023 Z M15.5022674,38.3698837 L16.8853488,37.0208721 L16.5128953,41.5312209 L15.5022674,38.3698837 Z M16.9376163,35.5060465 L15.1480233,37.2547674 L13.4560465,31.9608721 C13.5309942,31.9336192 13.5900407,31.9086372 13.646814,31.8859244 L16.9376163,35.5060465 Z M16.503843,44.942093 L12.1320407,38.8467442 L13.6604709,36.5052907 L11.6528547,34.3704651 L12.6816337,32.994186 L16.503843,44.942093 Z M17.3486686,44.1426744 L18.0140756,36.050814 L19.0156453,36.050814 L19.6810523,44.1246512 L18.5114593,47.7765116 L17.3486686,44.1426744 Z M24.3480872,32.9665116 L25.3973314,34.3677907 L23.3897151,36.5026163 L24.9204128,38.8463372 L20.4940756,45.016686 L24.3480872,32.9665116 Z M23.6122733,30.881686 C23.4351279,30.7567791 23.3056802,29.9278488 23.3329302,29.1647674 C23.7621628,28.7264477 24.152814,28.245 24.4889186,27.7248837 C25.2043256,27.1752849 26.0922907,26.6961047 27.2823488,26.2259884 L27.6707035,26.0715581 C28.0704128,25.9148547 28.4655872,25.7558779 28.8470988,25.5923605 L28.1135523,26.5711977 L29.8214012,28.3903256 L28.6018081,30.2571279 L30.7275058,33.220907 C30.5662616,33.1664012 30.4186395,33.1005407 30.2505814,33.0528488 C27.2845349,32.1330814 23.9459302,31.0588372 23.6122093,30.881686 L23.6122733,30.881686 Z M28.9175058,12.2723837 C28.912964,12.2337756 28.5314244,8.82261628 29.3558256,6.6719186 C30.5867558,8.17081395 32.024314,8.87261628 35.5674535,8.97476744 C38.8536744,9.06561047 41.0066977,9.25183721 41.0066977,10.9188372 L41.0066977,13.9257558 L41.9514651,12.6471512 C42.2058256,12.3019477 42.4170349,12.2429012 42.460186,12.2474419 C42.5691977,12.2951349 42.7327151,12.8447093 42.4329331,13.6259884 C42.1558634,14.3618023 41.7402587,14.6138953 41.615375,14.5843605 L41.0317122,14.4526395 L40.9772064,15.0476395 C40.8295843,16.698686 39.8938924,18.4338023 38.469939,19.6965349 L38.338218,19.8146279 C37.284439,20.7207907 36.0921134,21.2385814 35.0474041,21.2385814 L34.8770727,21.2363105 C32.3039331,21.2363105 29.4037587,18.1226477 29.1289913,15.0682872 L29.0835703,14.4732872 L28.4999076,14.6027407 C28.4363145,14.6072826 28.2977797,14.5686744 28.1774134,14.5187116 C28.0252506,13.7965023 27.7777041,13.0606884 27.4052622,12.3316767 C27.4302442,12.2794419 27.4552256,12.2476477 27.466582,12.243107 C27.5006477,12.2294802 27.7141285,12.2953419 27.9707622,12.6428163 L29.1380878,14.223514 L28.9175058,12.2723837 Z M38.1587849,22.8921512 C38.3836221,23.5030814 38.7629128,23.9822674 39.2398314,24.3865116 L36.8847151,31.7516279 L33.2827965,31.7516279 L30.9322151,24.4022093 C31.4182267,23.9934186 31.8065756,23.5073837 32.0336686,22.8873837 C32.0813616,22.7511163 32.1245116,22.610314 32.1494942,22.4967558 C32.238064,22.1379244 32.2607791,21.8040814 32.2494244,21.5065814 C33.0965174,21.9971337 33.9981453,22.2855349 34.8793081,22.2855349 L35.051907,22.2855349 C36.0034767,22.2855349 37.0005116,21.965314 37.9588837,21.3793721 C37.924818,21.8358605 37.9611552,22.3559419 38.1587384,22.8919302 L38.1587849,22.8921512 Z M30.1965756,25.5402326 L31.0277965,28.1406395 L29.4834942,26.4963953 L30.1965756,25.5402326 Z M28.38425,16.6059302 C28.8543605,18.1298256 29.8082035,19.5515116 30.9869244,20.591686 L30.9664849,20.6053122 C30.9687558,20.6121256 31.2458279,21.1004052 31.1958628,21.8226378 C30.3623744,21.7704029 28.843014,21.6046145 27.4440605,21.1117657 C27.6984209,20.5167657 28.3660953,18.7589169 28.384293,16.6059302 L28.38425,16.6059302 Z M27.2191919,23.0012791 C27.3236628,22.7332907 27.38725,22.4698488 27.4258605,22.2154651 C28.7044651,22.6174477 30.0285349,22.7855058 30.8846977,22.8513953 C30.2942326,23.902907 28.8929535,24.4638372 27.2850465,25.0975 L26.8944186,25.2519302 C26.3243779,25.4767674 25.8270349,25.7061453 25.3727907,25.9423372 C25.5272209,25.508564 25.6407791,25.0657093 25.7134535,24.6160581 C26.3129884,24.448 26.8898488,23.8416395 27.2191512,23.0013488 L27.2191919,23.0012791 Z M32.7333779,34.2181395 L29.8740756,30.2301163 L31.095936,28.3587209 L33.0400058,34.4360465 C32.9423488,34.3588314 32.8356105,34.2884244 32.7334128,34.2180233 L32.7333779,34.2181395 Z M33.6168081,32.7987209 L36.5487849,32.7987209 L35.1339012,37.2227907 C35.0362442,36.9820581 34.9204186,36.7572209 34.8000523,36.5346512 L34.8114076,36.5301087 L33.6168081,32.7987209 Z M39.0787267,28.3360465 L40.3141919,30.2301163 L36.9893081,34.8676744 L39.0787267,28.3360465 Z M39.1309616,28.1679884 L39.9780547,25.519907 L40.7047988,26.4942093 L39.1309616,28.1679884 Z M35.0453221,1.5145 L35.2837872,1.5145 C39.037857,1.5145 41.8675081,2.85217442 43.6983221,5.48659302 C46.7801826,9.922 46.1737872,16.9214767 45.4129733,18.9610116 C44.5704151,21.2229884 40.5392523,21.7135698 38.9996012,21.8180465 C38.9723483,21.318407 39.0790895,20.8846163 39.1744733,20.6143837 L39.3448047,20.6098419 L39.3448047,20.3168709 C40.7437581,19.0109988 41.6999209,17.27815 41.9701535,15.5771616 C42.5470081,15.4068302 43.1034093,14.8186151 43.4123047,13.996464 C43.8778744,12.7882663 43.6507698,11.6232081 42.8854151,11.2870453 C42.6219733,11.1689523 42.3358163,11.1666791 42.0541942,11.2643349 L42.0541942,10.9168581 C42.0541942,8.10528837 38.6226244,8.0098814 35.5977988,7.92586977 C31.6756477,7.81231744 30.7513453,6.88796279 29.6931477,5.37773023 L29.2434733,4.73499767 L28.8210547,5.39813721 C27.7922756,7.01511395 27.7309384,9.70639302 27.7922756,11.2394163 C27.5379151,11.1690151 27.2835547,11.1803698 27.0496593,11.2848378 C26.9815256,11.3143622 26.9202058,11.3575122 26.858886,11.4006634 C26.3547058,10.6580471 25.6915605,9.93583779 24.8490023,9.25676802 C25.875514,5.64804709 28.4781884,1.51490756 35.0460953,1.51490756 L35.0453221,1.5145 Z M11.212764,12.0906628 L11.3535721,12.008907 L11.4239733,11.8612849 C12.2461244,10.128436 13.8131593,8.85209884 15.8435081,8.27297093 C18.3008337,7.5689593 21.0624616,7.97773256 23.2202523,9.36535465 C28.8389151,12.980936 27.3649616,18.4269826 26.6700198,20.2391919 C26.4020314,20.1256395 26.0977058,20.1256395 25.8024616,20.2323785 L25.8024616,19.8122273 C25.8024616,16.7030994 21.6781593,16.5872855 18.9507174,16.5100762 L18.1308337,16.489636 C14.4743802,16.3965198 13.3002523,16.3034093 12.9573453,14.9702756 L12.8324384,14.4865372 L12.3441593,14.5864674 C11.9171942,14.6727698 11.5560779,14.9271302 11.3017174,15.3177465 C10.4341593,16.6463512 10.8929267,19.4397233 11.0450837,20.2255372 C10.8202465,20.1483221 10.5908686,20.1528628 10.3751419,20.2050977 C9.07607209,16.7848651 9.68926977,12.9783535 11.2131651,12.0905628 L11.212764,12.0906628 Z M12.0735198,23.4848488 L11.4921244,23.6165698 C11.3263337,23.6165698 10.9039267,23.3235988 10.6291012,22.619593 C10.3179616,21.8201744 10.4928337,21.2546512 10.6313721,21.2024419 C10.7222151,21.2024419 10.9425116,21.3137267 11.1764302,21.622593 L12.1189302,22.8693953 L12.1189302,20.2917209 L12.107575,20.1827093 C11.8486738,18.9653837 11.639732,16.7238721 12.1825227,15.8926512 C12.1847936,15.8903797 12.1847936,15.8881087 12.1870651,15.8858378 C12.9683442,17.4074657 14.8964837,17.4574076 18.1056698,17.5392099 L18.9232279,17.5619203 C22.618286,17.6663913 24.7552047,18.0661006 24.7552047,19.8148273 L24.7552047,22.8716878 L25.6977047,21.6248855 C25.9293558,21.3182924 26.1791698,21.1979262 26.2609314,21.2070076 C26.4017395,21.2683273 26.5402744,21.8656122 26.2427628,22.6218913 C25.9679605,23.3259029 25.5478209,23.618868 25.3638674,23.618868 L24.7802047,23.4871471 L24.7256988,24.0821471 C24.4281872,27.3366238 21.4144779,30.4141238 18.5256988,30.4141238 L18.3440128,30.4141238 C15.4551756,30.4141238 12.4440128,27.3367983 12.1440128,24.0821471 L12.0735198,23.4848488 Z M1.78340349,48.2801977 C1.44955465,47.9213663 1.28603721,47.439907 1.32464767,46.956186 L2.29441512,39.4073488 C2.72818837,36.5889186 4.26796163,34.8401977 7.00691512,34.0544419 C7.90627558,33.7750988 10.0365081,33.1142093 11.6944151,32.5668837 L10.2886012,34.4450814 L12.3325547,36.6207791 L10.8654616,38.8759535 L17.5422058,48.1875814 L17.7511477,48.8371163 L3.09126395,48.8371163 C2.58026977,48.8371163 2.11469419,48.6395349 1.78312442,48.2807035 L1.78340349,48.2801977 Z M35.1659616,48.2801977 C34.834386,48.6412965 34.3688105,48.8388837 33.8555547,48.8388837 L21.1625314,48.8366128 L19.2729965,48.8366128 L19.463764,48.2416128 L19.4683064,48.2438843 L26.1863297,38.8735355 L24.7169692,36.6206285 L26.7631901,34.4449308 L25.3914459,32.6121983 C27.0311552,33.1504424 29.0728413,33.7840587 29.9540622,34.0566169 C32.6861552,34.8401634 34.2259808,36.5888843 34.6551669,39.3959192 L35.6226669,46.9290587 C35.6612756,47.4400529 35.5000273,47.9192331 35.1661785,48.2803378 L35.1659616,48.2801977 Z M47.5229384,38.5057791 L35.8246826,38.5057791 L35.9495895,38.1128837 L41.581857,30.2570698 L40.362264,28.3856744 L42.0701128,26.5665465 L41.3411012,25.5899767 C41.7226419,25.7534942 42.1177872,25.9124709 42.519764,26.0714419 L42.9058453,26.2236047 C46.0217756,27.4613372 47.9749151,29.0147674 48.0793337,32.9253488 C48.165636,36.1752326 47.7341302,37.880814 47.5229209,38.505407 L47.5229384,38.5057791 Z" id="Shape"></path>
            </g>
        </g>
    </g>
</svg>